PathFileType	4	(X/Y/Z)	/Users/itak/Documents/Research/Walk-IL/dataset/trc/00218_00009.trc
DataRate	CameraRate	NumFrames	NumMarkers	Units	OrigDataRate	OrigDataStartFrame	OrigNumFrames
100.000000	100.000000	4	53	mm	100.000000	318	510
Frame#	Time	RPSI			LPSI			L3			STRN			T10			C7			CLAV			RBAK			LBAK			LSHO			LUPA			LAEL			LAOL			LWTS			LWPS			LFRA			LIFD			LHPS			LHTS			RSHO			RUPA			RAEL			RAOL			RWTS			RWPS			RFRA			RIFD			RHTS			RHPS			RBHD			LFHD			RFHD			LBHD			LHIP			RHIP			RASI			LASI			LKNE			LTHI			LANK			LTIP			LTOE			LMT1			LMT5			LHEE			RKNE			RANK			RTIP			RTOE			RMT1			RMT5			RHEE			RTHI			
		X1	Y1	Z1	X2	Y2	Z2	X3	Y3	Z3	X4	Y4	Z4	X5	Y5	Z5	X6	Y6	Z6	X7	Y7	Z7	X8	Y8	Z8	X9	Y9	Z9	X10	Y10	Z10	X11	Y11	Z11	X12	Y12	Z12	X13	Y13	Z13	X14	Y14	Z14	X15	Y15	Z15	X16	Y16	Z16	X17	Y17	Z17	X18	Y18	Z18	X19	Y19	Z19	X20	Y20	Z20	X21	Y21	Z21	X22	Y22	Z22	X23	Y23	Z23	X24	Y24	Z24	X25	Y25	Z25	X26	Y26	Z26	X27	Y27	Z27	X28	Y28	Z28	X29	Y29	Z29	X30	Y30	Z30	X31	Y31	Z31	X32	Y32	Z32	X33	Y33	Z33	X34	Y34	Z34	X35	Y35	Z35	X36	Y36	Z36	X37	Y37	Z37	X38	Y38	Z38	X39	Y39	Z39	X40	Y40	Z40	X41	Y41	Z41	X42	Y42	Z42	X43	Y43	Z43	X44	Y44	Z44	X45	Y45	Z45	X46	Y46	Z46	X47	Y47	Z47	X48	Y48	Z48	X49	Y49	Z49	X50	Y50	Z50	X51	Y51	Z51	X52	Y52	Z52	X53	Y53	Z53	

319	3.18	-12.44020843505859	1030.319213867188	-205.0800018310547	-30.45960235595703	1036.395141601562	-86.43730163574219	-23.25972938537598	1116.694580078125	-129.4449157714844	-275.6396789550781	1290.354614257812	-163.3804321289062	-21.46222305297852	1244.316162109375	-136.3064575195312	-95.80844116210938	1503.04833984375	-147.177978515625	-254.6039581298828	1408.869140625	-164.4592742919922	-4.100235939025879	1367.538818359375	-208.9424438476562	-89.91747283935547	1466.406005859375	-31.60337829589844	-186.9431762695312	1464.838989257812	10.04176330566406	-176.4010620117188	1349.8935546875	97.01863098144531	-215.1764068603516	1143.253662109375	130.2640075683594	-136.9312286376953	1117.26416015625	100.5911865234375	-325.6241455078125	924.3653564453125	57.22731399536133	-318.3246154785156	905.013427734375	139.4571533203125	-254.3265533447266	1040.491333007812	140.2897338867188	-369.8099670410156	735.175537109375	62.12436294555664	-349.6201477050781	821.2059936523438	131.4615936279297	-381.8242492675781	832.638916015625	71.98439025878906	-132.7438812255859	1455.136962890625	-320.0394897460938	-103.4438781738281	1391.11328125	-383.3554077148438	-72.10740661621094	1113.528198242188	-427.3008117675781	-45.85859298706055	1103.229858398438	-336.0873718261719	-206.0277099609375	895.5068969726562	-409.74609375	-145.1437225341797	884.8688354492188	-467.5911865234375	-94.99845123291016	1045.60498046875	-445.1758422851562	-213.64599609375	701.654052734375	-412.5209655761719	-238.4834747314453	774.0886840820312	-434.3869934082031	-180.1061248779297	777.1336059570312	-476.8429565429688	-137.3079071044922	1653.095581054688	-218.2049865722656	-335.1158447265625	1698.824584960938	-115.4406814575195	-338.9522705078125	1696.244750976562	-215.7383117675781	-176.7485046386719	1662.590454101562	-83.99909210205078	-143.1339569091797	970.9697265625	43.65685272216797	-98.81703186035156	990.8850708007812	-320.3843994140625	-198.2981109619141	1030.902709960938	-293.6126708984375	-239.4017333984375	1010.885559082031	-15.32447338104248	-133.0086212158203	485.0086975097656	-6.917191505432129	-147.927490234375	629.8289184570312	20.3983097076416	128.0169219970703	68.53551483154297	-14.00060272216797	-2.955189943313599	288.8001403808594	-2.111084461212158	-72.52825927734375	40.00024032592773	-85.38147735595703	-4.024001598358154	43.10342788696289	-123.1636810302734	5.438515663146973	36.63139724731445	-8.352371215820312	188.9059143066406	99.53984069824219	-58.29966735839844	-275.8345336914062	526.2205200195312	-294.5834350585938	-306.0879821777344	24.81718254089355	-254.7534484863281	-313.2108154296875	408.195068359375	-278.5434265136719	-505.0543823242188	96.89674377441406	-226.4270782470703	-453.3363342285156	85.90255737304688	-179.02783203125	-414.2072448730469	39.95924377441406	-279.9082641601562	-244.7109222412109	26.96269798278809	-192.5626525878906	-198.956298828125	780.8667602539062	-337.3119812011719	
320	3.19	-4.507022380828857	1029.43603515625	-203.8525695800781	-22.42015266418457	1035.651977539062	-85.22892761230469	-15.69200325012207	1116.282104492188	-128.0512390136719	-269.297607421875	1288.618408203125	-161.9676818847656	-15.03133487701416	1243.997680664062	-134.4529113769531	-90.54682159423828	1502.284057617188	-145.7093963623047	-248.862548828125	1407.229858398438	-163.1759033203125	1.970932722091675	1367.1865234375	-207.1943969726562	-84.86566925048828	1465.799438476562	-29.97109985351562	-182.0673217773438	1463.892944335938	11.26174068450928	-171.9005279541016	1349.270263671875	98.55154418945312	-211.2916717529297	1142.853759765625	132.4164276123047	-133.0376892089844	1116.394897460938	103.3171691894531	-323.3962097167969	925.443603515625	58.07467651367188	-316.8728637695312	905.6613159179688	140.2559051513672	-251.3329772949219	1040.403198242188	142.0334930419922	-370.48779296875	736.9694213867188	61.9201545715332	-349.3079223632812	822.3668212890625	131.7669219970703	-381.1732177734375	834.5978393554688	72.13172149658203	-127.1364059448242	1453.85302734375	-318.5562133789062	-97.61034393310547	1389.8134765625	-381.7241821289062	-65.52560424804688	1112.39990234375	-425.776611328125	-39.29913330078125	1102.094360351562	-334.5362854003906	-199.1739196777344	894.2621459960938	-408.5055847167969	-138.1463317871094	883.6610717773438	-466.2462463378906	-88.26236724853516	1044.453979492188	-443.6923828125	-206.8088226318359	700.455078125	-411.3864135742188	-231.5006561279297	772.8330688476562	-433.2372436523438	-173.0870361328125	775.9082641601562	-475.5797729492188	-132.0037536621094	1651.7080078125	-217.0487213134766	-329.8310546875	1697.576782226562	-114.412109375	-333.62646484375	1694.94970703125	-214.7230224609375	-171.5466918945312	1661.283203125	-82.86749267578125	-134.8703765869141	970.2408447265625	45.13659286499023	-91.10616302490234	989.9129028320312	-318.9937744140625	-190.5377960205078	1029.81884765625	-291.9585266113281	-231.2205963134766	1009.781188964844	-13.59248733520508	-122.6688995361328	484.7043762207031	-6.937484741210938	-138.0383453369141	629.325439453125	20.94844627380371	130.6198577880859	64.27515411376953	-16.08590698242188	4.116194248199463	286.3959350585938	-3.293462038040161	-72.36823272705078	40.20196151733398	-85.47907257080078	-3.549710988998413	42.22766494750977	-123.6736526489258	6.704400539398193	36.34314346313477	-8.885359764099121	192.1402587890625	93.25847625732422	-60.97286224365234	-270.6029052734375	526.30224609375	-293.8156433105469	-305.6871948242188	24.92059707641602	-254.7166290283203	-308.8244323730469	408.5325927734375	-278.1674194335938	-503.5046081542969	99.75200653076172	-227.0105743408203	-452.0989685058594	88.09809875488281	-179.4408721923828	-413.3975219726562	41.55845642089844	-280.2057495117188	-244.4566802978516	26.20921325683594	-192.3921051025391	-192.0195922851562	780.4854736328125	-336.2380981445312	
321	3.2	3.485426425933838	1028.553955078125	-202.6661376953125	-14.29940986633301	1034.9501953125	-84.07481384277344	-8.050105094909668	1116.005004882812	-126.6915893554688	-262.9009094238281	1286.96484375	-160.5220336914062	-8.48573112487793	1243.809692382812	-132.5716400146484	-85.25415802001953	1501.607421875	-144.225341796875	-243.0608978271484	1405.676391601562	-161.8460235595703	8.075778961181641	1366.960205078125	-205.4478454589844	-79.75389862060547	1465.295776367188	-28.32766342163086	-177.1221160888672	1463.036865234375	12.50623035430908	-167.3153991699219	1348.744506835938	100.0946426391602	-207.2223205566406	1142.529541015625	134.5518188476562	-128.9659881591797	1115.6328125	106.0095062255859	-320.8939819335938	926.5571899414062	58.92672729492188	-315.0851135253906	906.3546142578125	141.0635681152344	-248.073974609375	1040.388793945312	143.7847290039062	-370.7144775390625	738.8013916015625	61.71213912963867	-348.6238403320312	823.5578002929688	132.0634460449219	-380.1536560058594	836.56884765625	72.27725982666016	-121.5162658691406	1452.668212890625	-317.04833984375	-91.77729034423828	1388.607421875	-380.0794372558594	-59.03555297851562	1111.352294921875	-424.162109375	-32.79863739013672	1101.051147460938	-332.8969116210938	-192.3415832519531	893.0438232421875	-407.1255187988281	-131.2070465087891	882.5316162109375	-464.7982177734375	-81.61480712890625	1043.384155273438	-442.101318359375	-199.9206390380859	699.3020629882812	-410.1725769042969	-224.4614410400391	771.5897216796875	-431.94921875	-166.0652770996094	774.74609375	-474.2269287109375	-126.7369003295898	1650.399658203125	-215.8815155029297	-324.57763671875	1696.351440429688	-113.3626098632812	-328.3457946777344	1693.674926757812	-213.6947021484375	-166.3771209716797	1660.050048828125	-81.72309875488281	-126.6067504882812	969.6275024414062	46.52668380737305	-83.32270812988281	988.9750366210938	-317.6595764160156	-182.6680450439453	1028.866943359375	-290.3789978027344	-222.9903717041016	1008.850158691406	-11.94552803039551	-112.955810546875	484.4939270019531	-6.928599834442139	-128.6432800292969	628.92529296875	21.45736694335938	132.8340606689453	60.35908508300781	-17.85315895080566	10.63760185241699	284.2299499511719	-4.256558418273926	-72.20068359375	40.36062622070312	-85.53337860107422	-3.070380687713623	41.43610763549805	-124.0519943237305	7.821178913116455	36.0667724609375	-9.252702713012695	194.8349914550781	87.43631744384766	-63.28390502929688	-265.1287231445312	526.364013671875	-293.0118713378906	-305.197021484375	25.05443382263184	-254.6470031738281	-304.17822265625	408.8633728027344	-277.7552490234375	-501.7264709472656	102.9235305786133	-227.5991058349609	-450.6709899902344	90.50511169433594	-179.85888671875	-412.448974609375	43.43647003173828	-280.5563659667969	-244.1352233886719	25.37911033630371	-192.1768798828125	-185.0007019042969	780.1197509765625	-335.189208984375	
322	3.21	11.49955558776855	1027.683959960938	-201.5330963134766	-6.141937732696533	1034.291015625	-82.98390960693359	-0.3701717257499695	1115.850341796875	-125.3710174560547	-256.4574279785156	1285.414428710938	-159.0561218261719	-1.833700776100159	1243.72509765625	-130.6789703369141	-79.91079711914062	1501.01123046875	-142.7247772216797	-237.1929626464844	1404.229125976562	-160.4785003662109	14.21106433868408	1366.840087890625	-203.7066040039062	-74.56795501708984	1464.883544921875	-26.67678833007812	-172.0902862548828	1462.27685546875	13.7662935256958	-162.6357116699219	1348.317626953125	101.6424331665039	-202.9693603515625	1142.288452148438	136.6553192138672	-124.7074966430664	1114.984619140625	108.6557998657227	-318.1195373535156	927.6980590820312	59.77768325805664	-312.9661560058594	907.0943603515625	141.8790740966797	-244.5576019287109	1040.45361328125	145.5305633544922	-370.4472045898438	740.642822265625	61.52051162719727	-347.5543212890625	824.7733154296875	132.3591461181641	-378.7069396972656	838.5162353515625	72.44440460205078	-115.8621597290039	1451.60400390625	-315.5195922851562	-85.92170715332031	1387.521606445312	-378.4299011230469	-52.61022186279297	1110.406372070312	-422.4554443359375	-26.34804534912109	1100.122924804688	-331.1659545898438	-185.5176086425781	891.8820190429688	-405.604736328125	-124.3198776245117	881.5046997070312	-463.2452697753906	-75.03645324707031	1042.417724609375	-440.4046020507812	-192.9422149658203	698.2046508789062	-408.8699340820312	-217.3680725097656	770.3890380859375	-430.5260925292969	-159.0308074951172	773.6770629882812	-472.7853088378906	-121.4932250976562	1649.186401367188	-214.7044830322266	-319.3510131835938	1695.151123046875	-112.3028564453125	-323.0996704101562	1692.420166015625	-212.6620635986328	-161.2253265380859	1658.907104492188	-80.56665802001953	-118.3712921142578	969.1184692382812	47.82141494750977	-75.49947357177734	988.0839233398438	-316.3934936523438	-174.7342681884766	1028.0546875	-288.8903198242188	-214.7459259033203	1008.0908203125	-10.3928337097168	-103.8551788330078	484.3498229980469	-6.815261363983154	-119.7433853149414	628.6171264648438	21.98793411254883	134.6939544677734	56.76404571533203	-19.23064422607422	16.60577392578125	282.2578125	-4.943615913391113	-71.99629974365234	40.48789215087891	-85.55314636230469	-2.570950508117676	40.70162963867188	-124.2963256835938	8.787397384643555	35.78499984741211	-9.442584991455078	197.064208984375	82.06562805175781	-65.12891387939453	-259.4095153808594	526.3936767578125	-292.18212890625	-304.6166076660156	25.2061653137207	-254.5526885986328	-299.2754516601562	409.1808776855469	-277.3095092773438	-499.7325744628906	106.3605041503906	-228.2118377685547	-449.0719604492188	93.08821105957031	-180.2966461181641	-411.3367309570312	45.56202697753906	-280.9682312011719	-243.7472686767578	24.48575592041016	-191.9260406494141	-177.9142303466797	779.7711791992188	-334.1744384765625	
